# xmcd
#
# Track frame offsets:
#	150
#	27945
#	46571
#	72203
#	89459
#	112896
#	131375
#	158632
#
# Disc length: 2352 seconds
#
# Revision: 1
# Processed by: cddbd v1.5.2PL0 Copyright (c) Steve Scherf et al.
# Submitted via: audiograbber 1.83.01
#
DISCID=56092e08
DTITLE=Volker Strifler Band - LIVE
DYEAR=2008
DGENRE=Blues
TTITLE0=In Your Arms
TTITLE1=Soul Salvation
TTITLE2=Redemption
TTITLE3=Wake Up
TTITLE4=The Dance Goes On
TTITLE5=Doggin It
TTITLE6=Like it or Not
TTITLE7=Suffeluppagus
EXTD=
EXTT0=
EXTT1=
EXTT2=
EXTT3=
EXTT4=
EXTT5=
EXTT6=
EXTT7=
PLAYORDER=
